<?xml version="1.0" encoding="UTF-8" standalone="no"?>
<!-- Created with Inkscape (http://www.inkscape.org/) -->

<svg
   width="11.288889mm"
   height="10.752065mm"
   viewBox="0 0 40 38.097867"
   id="svg6056"
   version="1.1"
   inkscape:version="1.3.2 (091e20e, 2023-11-25, custom)"
   sodipodi:docname="c_clef.svg"
   xmlns:inkscape="http://www.inkscape.org/namespaces/inkscape"
   xmlns:sodipodi="http://sodipodi.sourceforge.net/DTD/sodipodi-0.dtd"
   xmlns="http://www.w3.org/2000/svg"
   xmlns:svg="http://www.w3.org/2000/svg"
   xmlns:rdf="http://www.w3.org/1999/02/22-rdf-syntax-ns#"
   xmlns:cc="http://creativecommons.org/ns#"
   xmlns:dc="http://purl.org/dc/elements/1.1/">
  <defs
     id="defs6058" />
  <sodipodi:namedview
     id="base"
     pagecolor="#ffffff"
     bordercolor="#666666"
     borderopacity="1.0"
     inkscape:pageopacity="0.0"
     inkscape:pageshadow="2"
     inkscape:zoom="11.2"
     inkscape:cx="17.366071"
     inkscape:cy="17.901786"
     inkscape:document-units="px"
     inkscape:current-layer="layer1"
     showgrid="false"
     fit-margin-top="1"
     fit-margin-bottom="1"
     fit-margin-left="0"
     fit-margin-right="0"
     units="px"
     inkscape:window-width="1920"
     inkscape:window-height="1057"
     inkscape:window-x="1912"
     inkscape:window-y="-8"
     inkscape:window-maximized="1"
     showguides="false"
     inkscape:showpageshadow="2"
     inkscape:pagecheckerboard="0"
     inkscape:deskcolor="#d1d1d1">
    <inkscape:grid
       type="xygrid"
       id="grid7098"
       originx="0"
       originy="0"
       spacingy="1"
       spacingx="1"
       units="px"
       visible="false" />
  </sodipodi:namedview>
  <metadata
     id="metadata6061">
    <rdf:RDF>
      <cc:Work
         rdf:about="">
        <dc:format>image/svg+xml</dc:format>
        <dc:type
           rdf:resource="http://purl.org/dc/dcmitype/StillImage" />
      </cc:Work>
    </rdf:RDF>
  </metadata>
  <g
     inkscape:label="Layer 1"
     inkscape:groupmode="layer"
     id="layer1"
     transform="translate(-17.915651,-66.716979)">
    <path
       inkscape:connector-curvature="0"
       id="path5305"
       style="fill:#000000;fill-opacity:1;fill-rule:nonzero;stroke:none"
       d="m 38.720168,94.387785 c -1.077625,-0.0338 -1.921375,-0.3275 -2.544875,-0.9175 -0.65475,-0.63125 -0.935,-1.425 -0.935,-2.5 V 80.46029 c -0.01125,-1.11 0.3115,-1.89375 0.935,-2.4625 0.59225,-0.57875 1.47125,-0.855 2.544875,-0.855 0.598625,0.0063 1.065,0.17625 1.38625,0.465 0.315,0.28875 0.484875,0.6625 0.484875,1.115 v 5.67375 l -0.32225,-0.29125 c -0.645,-0.56 -1.419875,-0.8375 -2.38625,-0.8375 -0.660125,-0.01375 -1.191375,0.23625 -1.6425,0.70875 -0.4625,0.4725 -0.67725,1.0525 -0.67725,1.74 -0.03525,0.64875 0.2245,1.26875 0.67725,1.7425 0.439875,0.43625 0.999,0.708745 1.6425,0.708745 0.972625,-0.0225 1.785125,-0.25875 2.38625,-0.774995 l 0.32225,-0.3225 v 5.707495 c -0.0034,0.4975 -0.182125,0.9125 -0.548375,1.19125 -0.394,0.24 -0.806625,0.42 -1.32275,0.42" />
  </g>
</svg>
